# Blender v2.81 (sub 16) OBJ File: ''
# www.blender.org
mtllib Joshau.mtl
o Cube
v 1.000000 1.000000 -1.000000
v 1.000000 -1.000000 -1.000000
v 1.000000 1.000000 1.000000
v 1.000000 -1.000000 1.000000
v -1.000000 1.000000 -1.000000
v -1.000000 -1.000000 -1.000000
v -1.000000 1.000000 1.000000
v -1.000000 -1.000000 1.000000
v 0.810000 0.810000 -0.810000
v 0.810000 -0.810000 -0.810000
v 0.810000 0.810000 0.810000
v 0.810000 -0.810000 0.810000
v -0.810000 0.810000 -0.810000
v -0.810000 -0.810000 -0.810000
v -0.810000 0.810000 0.810000
v -0.810000 -0.810000 0.810000
vt 0.000000 0.000000
vt 0.499000 -0.000000
vt 0.499000 1.000000
vt -0.000000 1.000000
vt 0.000000 1.000000
vt -0.000000 0.000000
vt 0.500000 0.000000
vt 0.500000 1.000000
vt 0.500000 0.000000
vt 0.500000 1.000000
vt -0.000000 1.000000
vt 0.000000 -0.000000
vt 0.000000 1.000000
vt 0.000000 -0.000000
vt 0.500000 0.000000
vt 0.000000 1.000000
vt 0.500000 0.000000
vt 0.500000 1.000000
vt 0.500000 -0.000000
vt 0.500000 1.000000
vt -0.000000 1.000000
vt 0.501000 -0.000000
vt 1.000000 -0.000000
vt 1.000000 1.000000
vt 0.501000 1.000000
vt 0.501000 1.000000
vt 0.501000 -0.000000
vt 1.000000 -0.000000
vt 1.000000 1.000000
vt 1.000000 0.000000
vt 0.501000 1.000000
vt 0.501000 0.000000
vt 1.000000 0.000000
vt 1.000000 1.000000
vt 0.501000 0.000000
vt 0.501000 1.000000
vt 1.000000 -0.000000
vt 1.000000 1.000000
vt 1.000000 1.000000
vn 0.0000 1.0000 0.0000
vn 0.0000 0.0000 1.0000
vn -1.0000 0.0000 0.0000
vn 0.0000 -1.0000 0.0000
vn 1.0000 0.0000 0.0000
vn 0.0000 0.0000 -1.0000
usemtl Material.001
s off
f 1/1/1 5/2/1 7/3/1 3/4/1
f 4/5/2 3/6/2 7/7/2 8/8/2
f 8/9/3 7/10/3 5/11/3 6/12/3
f 6/13/4 2/14/4 4/15/4 8/8/4
f 2/16/5 1/1/5 3/17/5 4/18/5
f 6/19/6 5/20/6 1/21/6 2/14/6
f 9/22/1 13/23/1 15/24/1 11/25/1
f 12/26/2 11/27/2 15/28/2 16/29/2
f 16/30/3 15/24/3 13/31/3 14/32/3
f 14/33/4 10/34/4 12/26/4 16/35/4
f 10/36/5 9/22/5 11/37/5 12/38/5
f 14/32/6 13/23/6 9/39/6 10/36/6
