# Blender v2.81 (sub 16) OBJ File: ''
# www.blender.org
mtllib moreblocks_slope_outer_onehalf_a.mtl
o Cube.003
v 0.500000 -0.500000 0.500000
v 0.500000 0.500000 0.500000
v 0.000000 -0.500000 0.500000
v 0.000000 -0.500000 -0.000000
v 0.500000 -0.500000 -0.000000
vt 0.000000 1.000000
vt 0.000000 0.000000
vt 0.500000 1.000000
vt 0.000000 1.000000
vt 0.500000 1.000000
vt 0.000000 1.000000
vt 0.999816 1.000000
vt 0.500000 0.500000
vt 0.999816 0.500000
vt 0.500000 1.000000
vn 0.0000 -0.0000 1.0000
vn -0.8944 0.4472 0.0000
vn 0.0000 0.4472 -0.8944
vn 0.0000 -1.0000 -0.0000
vn 1.0000 0.0000 0.0000
usemtl Material.002
s 1
f 1/1/1 2/2/1 3/3/1
f 3/4/2 2/2/2 4/5/2
f 4/5/3 2/2/3 5/6/3
f 3/7/4 4/5/4 5/8/4 1/9/4
f 2/2/5 1/1/5 5/10/5
